<svg width="100" height="32" viewBox="0 0 100 32" fill="none" xmlns="http://www.w3.org/2000/svg">
<path fill-rule="evenodd" clip-rule="evenodd" d="M14.6827 30.8523C13.2587 30.8523 11.8713 30.5575 10.5547 29.9746C8.00389 28.8455 6.03818 26.7701 5.01646 24.1278C3.99475 21.4878 4.04046 18.5986 5.14218 15.9952C5.76618 14.5186 6.72618 13.1883 7.91704 12.1438C7.84618 10.5415 8.13875 8.91634 8.76275 7.43977C10.4107 3.54263 14.189 1.02377 18.3856 1.02377H18.7285H21.421C23.6427 1.02377 26.3216 1.02148 26.6416 1.02148C27.4165 1.02148 27.9902 1.51291 28.0953 1.61348C28.1982 1.70491 28.7239 2.22148 28.7239 3.16091C28.7239 3.61348 28.7216 7.23406 28.7193 9.63177L28.717 11.6981C28.7125 13.1403 28.4245 14.5483 27.8599 15.8832C27.2359 17.3598 26.2759 18.6901 25.085 19.7346C25.1559 21.3369 24.8633 22.9621 24.2393 24.4386C22.5867 28.3335 18.8382 30.8523 14.6827 30.8523ZM8.52732 15.2729C8.12046 15.8078 7.77761 16.3975 7.51018 17.0283C6.67818 18.9941 6.64618 21.1746 7.41646 23.1655C8.18675 25.1563 9.66789 26.7198 11.5856 27.5678C12.5753 28.0066 13.6176 28.2283 14.685 28.2283C17.8073 28.2283 20.6279 26.3335 21.8667 23.3986C22.1365 22.7632 22.3239 22.0981 22.4245 21.4238C21.1262 21.9952 19.7045 22.2946 18.301 22.2946C16.8793 22.2946 15.4896 21.9998 14.173 21.4169C12.6462 20.7403 11.2885 19.6912 10.2439 18.3792C9.51932 17.4672 8.92732 16.3952 8.52732 15.2729ZM10.6599 13.3461C11.1925 15.8718 12.8862 17.9861 15.2039 19.0123C16.1936 19.4512 17.2359 19.6729 18.3033 19.6729C19.725 19.6729 21.117 19.2775 22.3376 18.5278C21.805 16.0021 20.1113 13.8878 17.7936 12.8615C16.8039 12.4226 15.7616 12.2009 14.6942 12.2009C13.2725 12.1986 11.8782 12.5963 10.6599 13.3461ZM14.7856 9.57691C16.1776 9.58834 17.5353 9.88548 18.8222 10.4546C20.349 11.1312 21.7067 12.1803 22.7513 13.4901C23.4782 14.4021 24.0702 15.4741 24.4702 16.5963C24.8793 16.0615 25.2199 15.4718 25.4873 14.8409C25.965 13.7095 25.965 12.4089 25.965 11.2592C25.965 11.0215 25.965 10.7701 25.965 10.5095V10.2101C25.965 9.60663 25.965 8.9232 25.965 8.29234C25.9627 7.45577 25.9627 6.61463 25.965 5.89006V5.70034C25.965 5.46263 25.965 5.2432 25.965 5.04663V3.78491C25.965 3.78491 18.477 3.78491 18.4748 3.78491C18.4062 3.78491 18.365 3.78491 18.3422 3.78491C18.333 3.78491 18.3239 3.78491 18.3147 3.78491H18.3056C15.197 3.78491 12.3125 5.66834 11.1285 8.47063C10.8587 9.10606 10.6713 9.7712 10.5707 10.4455C11.8416 9.88777 13.229 9.58606 14.6005 9.57463L14.7856 9.57691Z" fill="#EAEBEB"/>
<path fill-rule="evenodd" clip-rule="evenodd" d="M14.6827 30.7606C13.2725 30.7606 11.8965 30.4681 10.5913 29.8898C8.06331 28.7698 6.1136 26.7126 5.10102 24.0932C4.08845 21.4761 4.13188 18.6121 5.22445 16.0292C5.85074 14.5504 6.81074 13.2224 8.00845 12.1824C7.93074 10.5778 8.21874 8.95264 8.84502 7.47378C10.4793 3.61092 14.2233 1.11264 18.3833 1.11264H18.7262C20.2256 1.11264 26.1547 1.11035 26.637 1.11035C27.3776 1.11035 27.9216 1.57664 28.029 1.67721C28.1342 1.77092 28.6279 2.26007 28.6279 3.15835C28.6279 3.72978 28.6233 9.39835 28.621 11.1218V11.6955C28.6165 13.1264 28.3307 14.5229 27.7707 15.8464C27.1445 17.3252 26.1845 18.6532 24.9867 19.6932C25.0645 21.2978 24.7765 22.9229 24.1502 24.4018C22.5182 28.2624 18.8016 30.7606 14.6827 30.7606ZM8.55931 15.0852C8.09988 15.6612 7.72045 16.3012 7.4256 16.9938C6.58445 18.9824 6.55017 21.1858 7.3296 23.1995C8.10902 25.2109 9.60617 26.7926 11.5467 27.6521C12.5479 28.0955 13.6039 28.3195 14.6827 28.3195C17.8416 28.3195 20.6942 26.4018 21.949 23.4326C22.2439 22.7355 22.4405 22.0109 22.5342 21.2704C21.2062 21.8806 19.7502 22.2029 18.2987 22.2029C16.8885 22.2029 15.5125 21.9104 14.2073 21.3321C12.6942 20.6624 11.3479 19.6201 10.3125 18.3218C9.55817 17.3686 8.95474 16.2578 8.55931 15.0852ZM10.557 13.3001C11.0805 15.8852 12.7925 18.0429 15.165 19.0944C16.1662 19.5378 17.2199 19.7618 18.301 19.7618C19.7639 19.7618 21.1902 19.3504 22.4382 18.5686C21.9147 15.9835 20.2027 13.8258 17.8302 12.7744C16.829 12.3309 15.7753 12.1069 14.6942 12.1069C13.2313 12.1069 11.805 12.5206 10.557 13.3001ZM14.6942 9.66807C16.1045 9.66807 17.4805 9.96064 18.7856 10.5389C20.2987 11.2086 21.645 12.2486 22.6805 13.5492C23.4393 14.5024 24.0427 15.6132 24.4382 16.7881C24.8976 16.2121 25.277 15.5721 25.5719 14.8795C26.0565 13.7321 26.0565 12.4201 26.0565 11.2635C26.0565 10.9892 26.0565 10.6944 26.0565 10.3904V10.3538C26.0565 9.70692 26.0565 8.97549 26.0565 8.29435C26.0542 7.44635 26.0542 6.58464 26.0565 5.89207V5.83264C26.0565 5.54464 26.0565 5.28178 26.0565 5.04864V3.69549H18.4793C18.4016 3.69549 18.3582 3.69549 18.333 3.69549C18.3262 3.69549 18.317 3.69549 18.3102 3.69549H18.3056C15.1605 3.69549 12.2439 5.60178 11.0439 8.43607C10.749 9.13321 10.5525 9.85778 10.4587 10.5984C11.7867 9.98807 13.2427 9.66807 14.6942 9.66807Z" fill="#EAEBEB"/>
<path fill-rule="evenodd" clip-rule="evenodd" d="M14.4883 16.7011C15.0506 16.7011 15.5055 16.2348 15.5055 15.6611C15.5055 15.0874 15.0506 14.6211 14.4883 14.6211C13.926 14.6211 13.4712 15.0874 13.4712 15.6611C13.4712 16.2348 13.926 16.7011 14.4883 16.7011Z" fill="#EAEBEB"/>
<path fill-rule="evenodd" clip-rule="evenodd" d="M19.4736 16.0456C19.4736 16.8113 18.8678 17.4331 18.1181 17.4331C17.3707 17.4331 16.7627 16.8113 16.7627 16.0456C16.7627 15.2799 17.3684 14.6582 18.1181 14.6582C18.8656 14.6605 19.4736 15.2799 19.4736 16.0456Z" fill="#EAEBEB"/>
<path d="M45.404 26.308C43.8733 26.308 42.4267 26.0467 41.064 25.524C39.72 24.9827 38.4227 24.1893 37.172 23.144L38.992 20.68C40.2613 21.7067 41.3907 22.4347 42.38 22.864C43.388 23.2933 44.4613 23.508 45.6 23.508C46.4587 23.508 47.2147 23.3773 47.868 23.116C48.54 22.8547 49.0533 22.4907 49.408 22.024C49.7813 21.5573 49.968 21.016 49.968 20.4C49.968 19.5973 49.6973 18.9907 49.156 18.58C48.6333 18.1507 47.7187 17.824 46.412 17.6L42.8 16.984C41.1013 16.6853 39.832 16.116 38.992 15.276C38.1707 14.4173 37.76 13.3253 37.76 12C37.76 10.824 38.0587 9.79733 38.656 8.92C39.2533 8.024 40.084 7.33333 41.148 6.848C42.2307 6.344 43.5093 6.092 44.984 6.092C46.4587 6.092 47.8587 6.30667 49.184 6.736C50.5093 7.16533 51.732 7.79067 52.852 8.612L51.144 11.132C50.1547 10.3853 49.1373 9.82533 48.092 9.452C47.0467 9.06 45.9733 8.864 44.872 8.864C44.088 8.864 43.3973 8.98533 42.8 9.228C42.2213 9.47067 41.764 9.80667 41.428 10.236C41.1107 10.6653 40.952 11.1413 40.952 11.664C40.952 12.3733 41.1853 12.924 41.652 13.316C42.1373 13.6893 42.912 13.9693 43.976 14.156L47.476 14.744C49.4547 15.0987 50.9107 15.7147 51.844 16.592C52.796 17.4693 53.272 18.6547 53.272 20.148C53.272 21.3427 52.936 22.4067 52.264 23.34C51.6107 24.2733 50.696 25.0013 49.52 25.524C48.344 26.0467 46.972 26.308 45.404 26.308ZM55.7881 31.852V11.972H58.8961V13.96C59.4188 13.288 60.0535 12.7747 60.8001 12.42C61.5655 12.0467 62.3868 11.86 63.2641 11.86C64.4588 11.86 65.5321 12.1773 66.4841 12.812C67.4361 13.4467 68.1921 14.3053 68.7521 15.388C69.3308 16.4707 69.6201 17.6747 69.6201 19C69.6201 20.3253 69.3215 21.5293 68.7241 22.612C68.1455 23.6947 67.3615 24.5533 66.3721 25.188C65.3828 25.8227 64.2815 26.14 63.0681 26.14C62.2281 26.14 61.4628 25.9907 60.7721 25.692C60.0815 25.3747 59.4748 24.9267 58.9521 24.348V31.852H55.7881ZM62.3121 23.48C63.1148 23.48 63.8241 23.2933 64.4401 22.92C65.0748 22.528 65.5695 21.996 65.9241 21.324C66.2975 20.6333 66.4841 19.8587 66.4841 19C66.4841 18.1413 66.2975 17.376 65.9241 16.704C65.5695 16.032 65.0748 15.5 64.4401 15.108C63.8241 14.716 63.1148 14.52 62.3121 14.52C61.6215 14.52 60.9868 14.66 60.4081 14.94C59.8481 15.2013 59.3628 15.584 58.9521 16.088V21.94C59.3628 22.4253 59.8575 22.808 60.4361 23.088C61.0148 23.3493 61.6401 23.48 62.3121 23.48ZM72.3773 26V11.972H75.5413V26H72.3773ZM73.9733 9.116C73.432 9.116 72.9653 8.92933 72.5733 8.556C72.2 8.164 72.0133 7.70667 72.0133 7.184C72.0133 6.64267 72.2 6.18533 72.5733 5.812C72.9653 5.42 73.432 5.224 73.9733 5.224C74.5146 5.224 74.972 5.42 75.3453 5.812C75.7373 6.18533 75.9333 6.63333 75.9333 7.156C75.9333 7.69733 75.7373 8.164 75.3453 8.556C74.972 8.92933 74.5146 9.116 73.9733 9.116ZM77.336 26L82.628 18.776L77.56 11.972H81.284L84.56 16.592L87.836 11.972H91.392L86.268 18.86L91.616 26H87.92L84.392 21.1L80.864 26H77.336ZM93.389 26V11.972H96.553V26H93.389ZM94.985 9.116C94.4437 9.116 93.977 8.92933 93.585 8.556C93.2117 8.164 93.025 7.70667 93.025 7.184C93.025 6.64267 93.2117 6.18533 93.585 5.812C93.977 5.42 94.4437 5.224 94.985 5.224C95.5264 5.224 95.9837 5.42 96.357 5.812C96.749 6.18533 96.945 6.63333 96.945 7.156C96.945 7.69733 96.749 8.164 96.357 8.556C95.9837 8.92933 95.5264 9.116 94.985 9.116Z" fill="#FAFAFA"/>
</svg>
